<?xml version="1.0" encoding="UTF-8"?>
<svg id="Layer_2" data-name="Layer 2" xmlns="http://www.w3.org/2000/svg" viewBox="0 0 999.99 450">
  <g id="Layer_1-2" data-name="Layer 1">
    <g>
      <path d="m171.75,221.5V46.5h109v27.25h-78.75v46.25h72.5v27.5h-72.5v74h-30.25Z"/>
      <path d="m282.25,221.5l48-175h52.25l48,175h-31l-10.5-40h-65.25l-10.5,40h-31Zm48.5-67.5h51.25l-23.5-88.75h-4.25l-23.5,88.75Zm7.25-122L355.5,0h33.5l-25,32h-26Z"/>
      <path d="m447,221.5v-26.5h23.5v-122h-23.5v-26.5h89.5c10.5,0,19.71,1.79,27.62,5.38,7.91,3.59,14.08,8.67,18.5,15.25,4.41,6.59,6.62,14.46,6.62,23.62v2.25c0,8-1.5,14.59-4.5,19.75-3,5.17-6.59,9.17-10.75,12-4.17,2.84-8.17,4.84-12,6v4.25c3.83,1,7.96,2.88,12.38,5.62,4.41,2.75,8.16,6.75,11.25,12,3.08,5.25,4.62,12.04,4.62,20.38v2.5c0,9.5-2.29,17.71-6.88,24.62-4.59,6.92-10.84,12.21-18.75,15.88-7.92,3.67-17.04,5.5-27.38,5.5h-90.25Zm53.5-101.75h33c7.66,0,13.88-1.91,18.62-5.75,4.75-3.83,7.12-9.16,7.12-16v-2.5c0-6.83-2.38-12.16-7.12-16-4.75-3.83-10.96-5.75-18.62-5.75h-33v46Zm0,74.5h33.25c8,0,14.38-1.96,19.12-5.88,4.75-3.91,7.12-9.46,7.12-16.62v-2.25c0-7.16-2.34-12.71-7-16.62-4.67-3.91-11.09-5.88-19.25-5.88h-33.25v47.25Z"/>
      <path d="m618.5,221.5V46.5h30.25v175h-30.25Z"/>
      <path d="m750.24,225c-21.67,0-38.96-6.04-51.88-18.12-12.92-12.08-19.38-29.46-19.38-52.12v-41.5c0-22.66,6.46-40.04,19.38-52.12,12.91-12.08,30.21-18.12,51.88-18.12s39.16,6.04,52,18.12c12.83,12.09,19.25,29.46,19.25,52.12v41.5c0,22.67-6.42,40.04-19.25,52.12-12.84,12.09-30.17,18.12-52,18.12Zm0-27c13,0,23.12-3.79,30.38-11.38,7.25-7.58,10.88-17.88,10.88-30.88v-43.5c0-13-3.62-23.29-10.88-30.88-7.25-7.58-17.38-11.38-30.38-11.38s-22.88,3.79-30.12,11.38c-7.25,7.59-10.88,17.88-10.88,30.88v43.5c0,13,3.62,23.29,10.88,30.88,7.25,7.59,17.29,11.38,30.12,11.38Z"/>
      <path d="m65,450c-12.34,0-23.38-2.71-33.12-8.12s-17.5-13.33-23.25-23.75c-5.75-10.41-8.62-23.21-8.62-38.38v-41.5c0-22.66,6.33-40.04,19-52.12,12.66-12.08,29.66-18.12,51-18.12s37.75,5.71,49.25,17.12c11.5,11.42,17.25,26.79,17.25,46.12v1h-29.5v-2c0-6.66-1.34-12.66-4-18-2.67-5.33-6.75-9.54-12.25-12.62-5.5-3.08-12.42-4.62-20.75-4.62-12.34,0-22.04,3.79-29.12,11.38-7.09,7.59-10.62,18.04-10.62,31.38v42.5c0,13.17,3.54,23.67,10.62,31.5,7.08,7.84,16.96,11.75,29.62,11.75s21.91-3.41,27.75-10.25c5.83-6.83,8.75-15.58,8.75-26.25v-3h-44.25v-25.5h73.75v88h-27.5v-17.25h-4.25c-1.34,3-3.42,6.12-6.25,9.38-2.84,3.25-6.88,5.96-12.12,8.12s-12.38,3.25-21.38,3.25Z"/>
      <path d="m236.5,450c-21.67,0-38.96-6.04-51.88-18.12-12.92-12.08-19.38-29.46-19.38-52.12v-41.5c0-22.66,6.46-40.04,19.38-52.12,12.91-12.08,30.21-18.12,51.88-18.12s39.16,6.04,52,18.12c12.83,12.09,19.25,29.46,19.25,52.12v41.5c0,22.67-6.42,40.04-19.25,52.12-12.84,12.09-30.17,18.12-52,18.12Zm0-27c13,0,23.12-3.79,30.38-11.38,7.25-7.58,10.88-17.88,10.88-30.88v-43.5c0-13-3.62-23.29-10.88-30.88-7.25-7.58-17.38-11.38-30.38-11.38s-22.88,3.79-30.12,11.38c-7.25,7.59-10.88,17.88-10.88,30.88v43.5c0,13,3.62,23.29,10.88,30.88,7.25,7.59,17.29,11.38,30.12,11.38Z"/>
      <path d="m404.5,450c-14,0-26.04-2.54-36.12-7.62-10.09-5.08-17.84-12.46-23.25-22.12-5.42-9.66-8.12-21.16-8.12-34.5v-114.25h30v115c0,11.67,3.25,20.67,9.75,27,6.5,6.34,15.75,9.5,27.75,9.5s21.46-3.16,27.88-9.5c6.41-6.33,9.62-15.33,9.62-27v-115h30v114.25c0,13.34-2.67,24.84-8,34.5-5.34,9.67-13.09,17.04-23.25,22.12-10.17,5.08-22.25,7.62-36.25,7.62Z"/>
      <path d="m540,446.5l-46.5-175h31l39.5,155.75h3.5l39.75-155.75h31l-46.75,175h-51.5Z"/>
      <path d="m660.24,446.5v-175h111.5v27.25h-81.25v46h74.25v27.25h-74.25v47.25h82.5v27.25h-112.75Z"/>
      <path d="m799.24,446.5v-175h30.25v175h-30.25Z"/>
      <path d="m851.74,446.5l48-175h52.25l48,175h-31l-10.5-40h-65.25l-10.5,40h-31Zm48.5-67.5h51.25l-23.5-88.75h-4.25l-23.5,88.75Z"/>
    </g>
  </g>
</svg>